<svg xmlns="http://www.w3.org/2000/svg" id="visual" viewBox="0 0 800 200"
     width="" height="" version="1.1">
    <rect x="0" y="0" width="540" height="960" fill="#E4E7E8"
          style="&#10;    width: 100vw;&#10;    height: 100vh;&#10;"/>
    <path d="M0 261L11.3 255C22.7 249 45.3 237 67.8 237.7C90.3 238.3 112.7 251.7 135.2 246.8C157.7 242 180.3 219 202.8 203.8C225.3 188.7 247.7 181.3 270.2 189.5C292.7 197.7 315.3 221.3 337.8 236.8C360.3 252.3 382.7 259.7 405.2 255C427.7 250.3 450.3 233.7 472.8 241C495.3 248.3 517.7 279.7 528.8 295.3L540 311L540 0L528.8 0C517.7 0 495.3 0 472.8 0C450.3 0 427.7 0 405.2 0C382.7 0 360.3 0 337.8 0C315.3 0 292.7 0 270.2 0C247.7 0 225.3 0 202.8 0C180.3 0 157.7 0 135.2 0C112.7 0 90.3 0 67.8 0C45.3 0 22.7 0 11.3 0L0 0Z"
          fill="#FFF" stroke-linecap="round" stroke-linejoin="miter"/>
</svg>
